<svg t="1612686958237" class="icon" viewBox="0 0 1075 1024" version="1.1" xmlns="http://www.w3.org/2000/svg" p-id="11396" width="200" height="200"><path d="M63.232 396.1856H1014.272l-475.4944 626.5344z" fill="#FD6F1A" p-id="11397"></path><path d="M538.7264 1022.72l-515.6352-389.12-20.1216-19.7632c-6.656-6.6048 0-19.7632 0-26.368l60.2624-191.2832 475.4944 626.5344zM344.576 396.1856h395.1104l-200.9088 626.5344L344.576 396.1856zM224 13.7216l120.5248 382.464H63.232L183.808 20.2752C190.464 7.168 197.12 0.512 203.8784 0.512s13.4144 6.6048 20.1216 13.2096z m850.5344 573.7472v26.368c0 6.6048-6.7072 13.1584-13.4144 19.7632l-522.3936 389.12L1014.272 396.1856l60.3136 191.2832z m-60.3136-191.2832h-274.5856L860.2112 20.2752c0-13.1584 6.656-19.7632 13.4144-19.7632 6.656 0 13.3632 6.6048 20.0704 13.2096l120.5248 382.464z" fill="#E34524" p-id="11398"></path><path d="M538.7264 1022.72l-515.6352-389.12-20.1216-19.7632c-6.656-6.6048 0-19.7632 0-26.368l60.2624-191.2832 475.4944 626.5344zM344.576 396.1856h395.1104l-200.9088 626.5344L344.576 396.1856z m730.0096 191.2832v26.368c0 6.6048-6.7072 13.1584-13.4144 19.7632l-522.3936 389.12L1014.272 396.1856l60.3136 191.2832z" fill="#FDA50F" p-id="11399"></path><path d="M358.4 409.6h358.4l-179.2 614.4z" fill="#E34524" p-id="11400"></path></svg>