<svg t="1615433915702" class="icon" viewBox="0 0 1024 1024" version="1.1" xmlns="http://www.w3.org/2000/svg" p-id="4800" width="200" height="200"><path d="M511.3 64.2c-247.1 0-447.4 200.3-447.4 447.4S264.2 959 511.3 959s447.4-200.3 447.4-447.4S758.4 64.2 511.3 64.2z m244.1 488.1H552v203.4c0 22.5-18.2 40.7-40.7 40.7-22.5 0-40.7-18.2-40.7-40.7V552.3H267.3c-22.5 0-40.7-18.2-40.7-40.7 0-22.5 18.2-40.7 40.7-40.7h203.4V267.6c0-22.5 18.2-40.7 40.7-40.7 22.5 0 40.7 18.2 40.7 40.7V471h203.4c22.5 0 40.7 18.2 40.7 40.7-0.1 22.4-18.4 40.6-40.8 40.6z" fill="#1b9aee" p-id="4801"></path></svg>