<svg t="1614401658146" class="icon" viewBox="0 0 1024 1024" version="1.1" xmlns="http://www.w3.org/2000/svg" p-id="1042" width="200" height="200"><path d="M512 512m-448 0a448 448 0 1 0 896 0 448 448 0 1 0-896 0Z" fill="#75B3F2" p-id="1043"></path><path d="M448 128c-107.4 0-206 37.8-283.2 100.8C101.8 306 64 404.6 64 512c0 247.4 200.6 448 448 448 107.4 0 206-37.8 283.2-100.8C858.2 782 896 683.4 896 576c0-247.4-200.6-448-448-448z" fill="#69A5ED" p-id="1044"></path><path d="M384 192c-91 0-175.6 27.1-246.3 73.7C91.1 336.4 64 421 64 512c0 247.4 200.6 448 448 448 91 0 175.6-27.1 246.3-73.7C804.9 815.6 832 731 832 640c0-247.4-200.6-448-448-448z" fill="#5E99EF" p-id="1045"></path><path d="M384 256c-126.5 0-238.7 61.2-308.7 155.6C67.9 443.8 64 477.5 64 512c0 247.4 200.6 448 448 448 34.5 0 68.2-3.9 100.4-11.3C706.8 878.7 768 766.5 768 640c0-212.1-171.9-384-384-384z" fill="#558FF3" p-id="1046"></path><path d="M642.3 776H405.7c-49.5 0-89.7-40.2-89.7-89.7V314.7c0-49.5 40.2-89.7 89.7-89.7h236.6c49.5 0 89.7 40.2 89.7 89.7v371.6c0 49.5-40.2 89.7-89.7 89.7z" fill="#FFFFFF" p-id="1047"></path><path d="M652.4 432H394.6c-18 0-32.6-14.6-32.6-32.6v-3.9c0-18 14.6-32.6 32.6-32.6h257.9c18 0 32.6 14.6 32.6 32.6v3.9c-0.1 18-14.7 32.6-32.7 32.6zM652.4 661H394.6c-18 0-32.6-14.6-32.6-32.6v-3.9c0-18 14.6-32.6 32.6-32.6h257.9c18 0 32.6 14.6 32.6 32.6v3.9c-0.1 18-14.7 32.6-32.7 32.6zM652.4 546H394.6c-18 0-32.6-14.6-32.6-32.6v-3.9c0-18 14.6-32.6 32.6-32.6h257.9c18 0 32.6 14.6 32.6 32.6v3.9c-0.1 18-14.7 32.6-32.7 32.6z" fill="#9DD5FC" p-id="1048"></path></svg>